<?xml version="1.0" standalone="no"?>
<!DOCTYPE svg PUBLIC "-//W3C//DTD SVG 20010904//EN"
 "http://www.w3.org/TR/2001/REC-SVG-20010904/DTD/svg10.dtd">
<svg version="1.0" xmlns="http://www.w3.org/2000/svg"
 width="500.000000pt" height="500.000000pt" viewBox="0 0 500.000000 500.000000"
 preserveAspectRatio="xMidYMid meet">
<metadata>
Created by potrace 1.14, written by Peter Selinger 2001-2017
</metadata>
<g transform="translate(0.000000,500.000000) scale(0.100000,-0.100000)"
fill="#000000" stroke="none">
<path d="M580 2508 l0 -643 123 0 122 0 0 387 c0 299 3 385 12 375 6 -7 118
-176 248 -377 131 -201 241 -369 246 -375 5 -5 56 -10 113 -10 87 -1 105 1
108 14 2 9 4 297 3 641 l0 625 -125 0 -124 0 -1 -375 c-1 -206 -3 -379 -4
-385 -1 -5 -5 -3 -9 5 -7 16 -27 47 -314 485 l-176 270 -111 3 -111 3 0 -643z"/>
<path d="M3495 2512 c0 -350 3 -639 7 -642 4 -3 60 -5 125 -5 l118 0 1 220 c1
121 2 229 3 240 1 19 8 20 144 21 78 0 164 3 192 7 98 13 215 90 270 177 26
42 57 129 49 141 -3 5 -1 9 5 9 5 0 9 33 8 75 0 41 -3 75 -7 75 -4 0 -7 6 -8
13 -5 84 -89 200 -180 250 -94 51 -142 57 -447 57 l-280 0 0 -638z m558 378
c46 -32 68 -70 71 -128 5 -81 -31 -142 -101 -171 -32 -13 -252 -19 -270 -8 -7
4 -10 322 -4 335 0 1 61 1 135 -1 122 -2 136 -5 169 -27z"/>
<path d="M2398 3133 c-2 -5 -3 -119 -3 -255 l1 -248 -258 0 -257 0 2 -122 2
-123 215 0 215 -1 165 162 165 163 1 215 0 216 -122 0 c-68 0 -124 -3 -126 -7z"/>
<path d="M2560 2466 l-165 -164 0 -205 c0 -113 3 -209 7 -213 4 -4 61 -7 125
-7 l118 -1 0 252 c0 139 2 253 5 253 3 1 118 2 255 4 138 1 252 3 255 4 3 0 6
54 5 119 l-1 117 -219 2 -220 3 -165 -164z"/>
</g>
</svg>
