<svg width="84" height="28" viewBox="0 0 84 28" fill="none" xmlns="http://www.w3.org/2000/svg">
<g clip-path="url(#clip0_40_48122)">
<path d="M9.614 27.068L0 1H4.598L11.058 19.202C11.1847 19.506 11.3113 19.8607 11.438 20.266C11.5647 20.6713 11.6913 21.064 11.818 21.444C11.9447 21.7987 12.0587 22.1153 12.16 22.394H12.35C12.4513 22.1153 12.5653 21.7987 12.692 21.444C12.8187 21.0893 12.9453 20.722 13.072 20.342C13.1987 19.962 13.3253 19.5947 13.452 19.24L19.836 1H24.282L14.63 27.068H9.614Z" fill="black"/>
<path d="M72.4881 26.98C71.0695 26.98 69.7015 26.828 68.3841 26.524C67.0668 26.2453 65.9015 25.7893 64.8881 25.156C63.8748 24.4973 63.0768 23.674 62.4941 22.686C61.9115 21.6727 61.6201 20.4693 61.6201 19.076C61.6201 18.924 61.6201 18.7847 61.6201 18.658C61.6455 18.506 61.6581 18.3793 61.6581 18.278H65.9141C65.9141 18.354 65.9015 18.468 65.8761 18.62C65.8761 18.772 65.8761 18.8987 65.8761 19C65.8761 19.9373 66.1548 20.7353 66.7121 21.394C67.2695 22.0527 68.0421 22.5467 69.0301 22.876C70.0435 23.2053 71.1961 23.37 72.4881 23.37C73.1975 23.37 73.8815 23.332 74.5401 23.256C75.1988 23.1547 75.7941 23.0153 76.3261 22.838C76.8835 22.6353 77.3648 22.3947 77.7701 22.116C78.1755 21.812 78.4921 21.4573 78.7201 21.052C78.9481 20.6467 79.0621 20.178 79.0621 19.646C79.0621 18.8353 78.8215 18.164 78.3401 17.632C77.8841 17.1 77.2508 16.6567 76.4401 16.302C75.6548 15.9473 74.7555 15.6307 73.7421 15.352C72.7541 15.0733 71.7281 14.7947 70.6641 14.516C69.6001 14.2373 68.5615 13.908 67.5481 13.528C66.5601 13.148 65.6608 12.692 64.8501 12.16C64.0648 11.6027 63.4315 10.9187 62.9501 10.108C62.4941 9.272 62.2661 8.25867 62.2661 7.068C62.2661 5.928 62.5068 4.91467 62.9881 4.028C63.4695 3.14133 64.1661 2.40667 65.0781 1.824C65.9901 1.216 67.0795 0.759999 68.3461 0.455998C69.6128 0.151999 71.0441 0 72.6401 0C74.0081 0 75.3001 0.151999 76.5161 0.455998C77.7321 0.734666 78.7961 1.178 79.7081 1.786C80.6201 2.394 81.3295 3.16667 81.8361 4.104C82.3681 5.04133 82.6341 6.156 82.6341 7.448V7.904H78.4161V7.41C78.4161 6.59933 78.1755 5.91533 77.6941 5.358C77.2128 4.80067 76.5415 4.37 75.6801 4.066C74.8188 3.762 73.8181 3.61 72.6781 3.61C71.3355 3.61 70.2081 3.74933 69.2961 4.028C68.3841 4.28133 67.6875 4.64867 67.2061 5.13C66.7501 5.586 66.5221 6.14333 66.5221 6.802C66.5221 7.53667 66.7628 8.14467 67.2441 8.626C67.7255 9.082 68.3588 9.47467 69.1441 9.804C69.9548 10.1333 70.8541 10.4373 71.8421 10.716C72.8555 10.9693 73.8815 11.248 74.9201 11.552C75.9841 11.8307 77.0101 12.16 77.9981 12.54C79.0115 12.92 79.9108 13.3887 80.6961 13.946C81.5068 14.5033 82.1528 15.2 82.6341 16.036C83.1155 16.8467 83.3561 17.8473 83.3561 19.038C83.3561 20.9127 82.8875 22.4453 81.9501 23.636C81.0128 24.8013 79.7208 25.65 78.0741 26.182C76.4528 26.714 74.5908 26.98 72.4881 26.98Z" fill="black"/>
<path fill-rule="evenodd" clip-rule="evenodd" d="M40.4337 18.4154V27H44.7557V16.2133H54.6201V11.8376H47.0115L40.4337 18.4154ZM38.3931 16.2133L44.7557 9.85073V1H40.4337V11.8376H30.6201V16.2133H38.3931Z" fill="black"/>
</g>
<defs>
<clipPath id="clip0_40_48122">
<rect width="84" height="28" fill="white"/>
</clipPath>
</defs>
</svg>
